<svg xmlns="http://www.w3.org/2000/svg" xmlns:xlink="http://www.w3.org/1999/xlink" id="Layer_1" x="0" y="0" version="1.1" viewBox="0 0 512 512" xml:space="preserve" style="enable-background:new 0 0 512 512"><path style="fill:#797781" d="M422.831,245.933c0-9.531-7.727-17.258-17.258-17.258h-57.528c-9.531,0-17.258,7.727-17.258,17.258	c0,7.511,4.807,13.884,11.506,16.255v12.509h69.034v-12.509C418.024,259.816,422.831,253.443,422.831,245.933z"/><rect style="fill:#58575d" width="69.034" height="57.528" x="342.292" y="263.191"/><path style="fill:#88888f" d="M238.742,84.279c-32.944,0-39.694,62.324-39.694,155.901c0,4.766,3.864,8.629,8.629,8.629	s8.629-3.864,8.629-8.629c0-47.231,1.867-80.004,5.874-103.141c3.851-22.23,10.042-35.502,16.562-35.502V84.279z"/><path style="fill:#58575d" d="M441.482,144.478c-2.975-14.889-12.03-60.2-41.662-60.2v17.258c9.838,0,18.855,16.884,24.738,46.324	c6.107,30.559,9.203,75.169,9.203,132.588c0,4.766,3.864,8.629,8.629,8.629s8.629-3.864,8.629-8.629	C451.02,221.896,447.811,176.149,441.482,144.478z"/><path style="fill:#797781" d="M399.82,176.899c0-9.531,7.727-17.258,17.258-17.258l0,0c9.531,0,17.258,7.727,17.258,17.258v34.517	c0,9.531-7.727,17.258-17.258,17.258l0,0c-9.531,0-17.258-7.727-17.258-17.258V176.899z"/><path style="fill:#58575d" d="M261.753,248.809c-2.208,0-4.417-0.842-6.101-2.528c-3.37-3.37-3.37-8.834,0-12.203l57.528-57.528	c3.37-3.37,8.834-3.37,12.203,0c3.37,3.37,3.37,8.834,0,12.203l-57.528,57.528C266.17,247.967,263.961,248.809,261.753,248.809z"/><path style="fill:#797781" d="M342.292,214.292c-2.208,0-4.417-0.842-6.101-2.528l-46.022-46.022c-3.37-3.37-3.37-8.834,0-12.203	c3.37-3.37,8.834-3.37,12.203,0l46.022,46.022c3.37,3.37,3.37,8.834,0,12.203C346.709,213.45,344.5,214.292,342.292,214.292z"/><path style="fill:#f8e99b" d="M238.742,67.596h195.596v34.517H204.225C204.225,83.05,219.679,67.596,238.742,67.596z"/><rect style="fill:#f6e27d" width="184.09" height="34.517" x="250.247" y="67.596"/><path style="fill:#797781" d="M89.169,412.764H8.629C3.864,412.764,0,408.9,0,404.135s3.864-8.629,8.629-8.629h80.539	c4.766,0,8.629,3.864,8.629,8.629S93.934,412.764,89.169,412.764z"/><rect style="fill:#ededed" width="34.517" height="138.067" x="89.169" y="274.697"/><rect style="fill:#797781" width="46.022" height="299.146" x="112.18" y="113.618"/><polygon style="fill:#58575d" points="457.348 384 388.315 384 388.315 314.966 457.348 320.719"/><rect style="fill:#f8e99b" width="103.551" height="161.079" x="192.719" y="240.18"/><rect style="fill:#f6e27d" width="46.022" height="161.079" x="250.247" y="240.18"/><circle style="fill:#797781" cx="451.596" cy="384" r="51.775"/><path style="fill:#dbdbdb" d="M451.596,398.382c-7.931,0-14.382-6.451-14.382-14.382c0-7.931,6.451-14.382,14.382-14.382	c7.931,0,14.382,6.451,14.382,14.382C465.978,391.931,459.526,398.382,451.596,398.382z"/><circle style="fill:#88888f" cx="198.472" cy="384" r="51.775"/><path style="fill:#ededed" d="M198.472,398.382c-7.931,0-14.382-6.451-14.382-14.382c0-7.931,6.451-14.382,14.382-14.382	s14.382,6.451,14.382,14.382C212.854,391.931,206.403,398.382,198.472,398.382z"/><path style="fill:#88888f" d="M503.371,444.405H146.697c-4.766,0-8.629-3.864-8.629-8.629s3.864-8.629,8.629-8.629h356.674	c4.766,0,8.629,3.864,8.629,8.629S508.136,444.405,503.371,444.405z"/><polygon style="fill:#efc27b" points="457.348 332.225 399.82 332.225 399.82 401.258 250.247 401.258 250.247 320.719 457.348 274.697"/><path style="fill:#797781" d="M503.371,427.146H250.247v17.258h253.124c4.766,0,8.629-3.864,8.629-8.629	S508.136,427.146,503.371,427.146z"/></svg>